<?xml version="1.0" standalone="no"?>
<!DOCTYPE svg PUBLIC "-//W3C//DTD SVG 20010904//EN"
 "http://www.w3.org/TR/2001/REC-SVG-20010904/DTD/svg10.dtd">
<svg version="1.0" xmlns="http://www.w3.org/2000/svg"
 width="835.000000pt" height="835.000000pt" viewBox="0 0 835.000000 835.000000"
 preserveAspectRatio="xMidYMid meet">
<metadata>
Created by potrace 1.14, written by Peter Selinger 2001-2017
</metadata>
<g transform="translate(0.000000,835.000000) scale(0.100000,-0.100000)"
fill="#000000" stroke="none">
<path d="M4016 7919 c2 -4 -15 -7 -39 -7 -48 0 -66 -4 -86 -16 -10 -6 -12 -5
-7 2 4 7 2 12 -3 12 -6 0 -11 -3 -11 -7 0 -5 -13 -8 -30 -8 -16 0 -30 3 -30 6
0 3 -7 6 -15 6 -8 0 -12 -4 -10 -8 3 -3 -4 -9 -15 -12 -10 -3 -20 -1 -22 5 -2
5 -11 6 -21 3 -9 -4 -14 -12 -10 -19 4 -6 0 -6 -9 2 -10 8 -19 9 -22 3 -3 -5
-16 -7 -28 -3 -16 4 -19 2 -13 -9 8 -12 6 -12 -8 0 -9 7 -17 9 -17 4 0 -9 -42
-15 -93 -14 -11 0 -15 -5 -11 -12 5 -9 4 -9 -6 0 -9 8 -19 9 -32 2 -10 -5 -23
-7 -28 -4 -6 3 -10 1 -10 -6 0 -9 -3 -9 -14 0 -9 7 -15 8 -18 2 -1 -6 -20 -11
-40 -13 -21 -1 -38 -6 -38 -11 0 -5 -6 -7 -14 -4 -7 3 -23 -1 -34 -9 -14 -10
-23 -11 -27 -4 -5 8 -15 6 -31 -4 -13 -9 -32 -16 -42 -16 -10 0 -24 -6 -31
-12 -11 -10 -13 -10 -7 0 4 6 3 12 -2 12 -6 0 -12 -7 -16 -15 -3 -8 -12 -12
-20 -9 -8 3 -17 1 -20 -4 -3 -6 -16 -8 -28 -4 -12 3 -19 1 -15 -4 3 -6 -5 -11
-19 -12 -46 -3 -54 -5 -54 -14 0 -5 -4 -6 -10 -3 -5 3 -10 1 -10 -6 0 -8 -5
-7 -17 2 -14 12 -16 12 -8 0 6 -11 4 -13 -8 -8 -9 3 -18 -1 -21 -10 -4 -8 -13
-13 -21 -9 -8 3 -21 -1 -28 -9 -8 -7 -30 -17 -50 -20 -20 -4 -34 -11 -31 -16
3 -5 -2 -6 -10 -3 -10 4 -16 1 -16 -7 0 -7 -3 -9 -6 -6 -4 3 -16 1 -28 -6 -11
-6 -25 -12 -31 -12 -5 -1 -20 -7 -33 -13 -12 -7 -27 -10 -32 -7 -6 4 -9 1 -8
-7 2 -8 -5 -12 -21 -10 -15 2 -21 0 -17 -7 4 -7 -1 -11 -13 -11 -12 0 -21 -5
-21 -11 0 -5 -4 -7 -10 -4 -5 3 -10 1 -10 -4 0 -6 -7 -11 -16 -11 -9 0 -27 -9
-41 -20 -14 -11 -30 -17 -36 -13 -6 3 -7 1 -3 -5 6 -11 -6 -17 -27 -13 -4 1
-10 -6 -13 -14 -3 -8 -10 -13 -14 -10 -5 3 -14 -1 -22 -8 -13 -13 -39 -25 -49
-23 -3 0 -13 -7 -23 -17 -10 -9 -22 -14 -28 -11 -6 4 -8 2 -4 -4 6 -10 -30
-28 -47 -24 -5 1 -6 -2 -2 -8 3 -5 -1 -10 -10 -10 -10 0 -13 -5 -9 -12 5 -7 2
-9 -8 -6 -8 4 -20 -2 -27 -13 -6 -11 -16 -17 -21 -14 -5 3 -12 0 -17 -8 -4 -7
-21 -21 -38 -31 -16 -11 -38 -28 -49 -38 -11 -10 -27 -20 -37 -23 -9 -3 -20
-12 -23 -20 -3 -8 -12 -15 -21 -15 -8 0 -15 -4 -15 -9 0 -5 -9 -11 -21 -14
-13 -4 -18 -10 -13 -18 4 -7 3 -10 -4 -5 -6 3 -24 -7 -40 -24 -17 -16 -35 -30
-41 -30 -6 0 -11 -7 -11 -15 0 -8 -6 -14 -12 -13 -7 2 -12 -3 -10 -9 2 -12 -9
-17 -24 -10 -3 1 -12 -9 -19 -23 -8 -14 -14 -22 -15 -17 0 4 -8 -1 -18 -10
-11 -10 -17 -22 -14 -27 3 -5 1 -6 -5 -3 -12 8 -65 -38 -55 -48 4 -5 -1 -5
-11 -2 -10 4 -17 2 -17 -6 0 -14 -35 -47 -51 -47 -5 0 -8 -4 -4 -9 3 -6 -30
-46 -72 -89 -43 -44 -82 -85 -88 -91 -5 -7 -19 -19 -30 -27 -11 -9 -14 -13 -7
-9 6 3 12 1 12 -4 0 -6 -6 -11 -14 -11 -8 0 -17 -8 -20 -17 -3 -10 -19 -32
-36 -50 -16 -18 -30 -37 -30 -42 0 -6 -4 -11 -8 -11 -5 0 -24 -22 -43 -49 -18
-27 -37 -47 -43 -44 -5 3 -6 1 -3 -4 4 -6 -2 -21 -13 -33 -11 -13 -20 -27 -20
-32 0 -5 -5 -6 -10 -3 -6 4 -10 3 -9 -2 1 -4 1 -17 0 -28 -1 -17 -3 -18 -11
-5 -8 13 -10 12 -10 -4 0 -11 -6 -27 -14 -35 -8 -9 -16 -23 -18 -31 -2 -8 -12
-23 -22 -32 -10 -10 -16 -18 -12 -18 4 0 1 -7 -6 -15 -26 -29 -38 -45 -37 -47
6 -10 -15 -47 -23 -42 -7 4 -8 2 -4 -4 8 -13 -28 -75 -37 -65 -4 3 -7 1 -7 -5
0 -7 4 -12 10 -12 5 0 -1 -11 -14 -25 -13 -14 -26 -39 -30 -56 -3 -17 -10 -28
-16 -24 -6 4 -10 3 -9 -2 4 -24 -2 -43 -13 -37 -6 4 -9 3 -6 -2 3 -5 1 -20 -5
-34 -5 -14 -9 -34 -8 -45 1 -15 0 -17 -7 -6 -8 10 -12 6 -17 -18 -4 -17 -13
-38 -22 -46 -10 -10 -11 -15 -2 -15 7 0 5 -8 -7 -22 -10 -12 -13 -18 -6 -14
11 7 11 4 0 -15 -7 -13 -20 -33 -28 -43 -8 -11 -10 -16 -3 -13 8 5 11 0 10
-12 0 -11 -5 -17 -9 -15 -4 3 -8 -15 -8 -40 0 -26 -5 -46 -12 -49 -7 -3 -8 -6
-3 -6 6 -1 10 -31 9 -72 -1 -58 3 -76 17 -90 11 -11 19 -23 19 -29 0 -5 5 -10
10 -10 6 0 10 -7 10 -15 0 -8 6 -15 13 -15 8 0 7 -4 -3 -10 -13 -8 -12 -10 3
-10 9 0 17 -5 17 -10 0 -6 10 -22 23 -35 37 -40 47 -54 47 -64 0 -5 8 -16 18
-23 11 -7 26 -26 35 -43 9 -16 17 -23 17 -15 1 8 7 2 14 -15 10 -25 10 -32 -1
-43 -7 -8 -11 -17 -8 -22 3 -5 -1 -11 -7 -13 -10 -4 -10 -6 0 -6 6 -1 12 -9
12 -18 0 -10 14 -26 30 -35 17 -9 30 -24 31 -33 0 -8 1 -35 2 -60 0 -25 5 -45
9 -45 5 0 6 -6 1 -12 -10 -17 -11 -59 -2 -79 5 -9 3 -22 -4 -29 -9 -10 -9 -11
1 -6 8 5 12 0 12 -13 0 -12 -6 -21 -12 -21 -9 0 -9 -3 -2 -8 11 -8 18 -133 9
-163 -4 -11 -15 -19 -25 -19 -13 0 -22 -9 -26 -25 -3 -14 -10 -25 -15 -25 -5
0 -9 -7 -9 -15 0 -8 -4 -15 -10 -15 -5 0 -10 -8 -10 -18 0 -10 -9 -25 -20 -35
-12 -10 -18 -22 -15 -27 4 -6 -1 -13 -9 -16 -9 -3 -16 -12 -16 -20 0 -8 -5
-14 -11 -14 -5 0 -7 -4 -4 -10 3 -5 1 -10 -5 -10 -6 0 -9 -4 -5 -9 3 -6 -3
-14 -12 -20 -10 -6 -14 -11 -10 -11 5 0 -1 -13 -12 -29 -11 -15 -18 -31 -14
-35 3 -3 1 -6 -6 -6 -7 0 -9 -4 -6 -10 3 -5 1 -10 -4 -10 -6 0 -11 -9 -11 -20
0 -10 -7 -23 -17 -28 -10 -6 -16 -21 -15 -41 0 -17 -4 -31 -10 -31 -6 0 -6 -6
2 -15 7 -8 9 -15 5 -15 -4 0 -2 -6 4 -14 6 -7 12 -25 13 -40 1 -14 6 -26 11
-26 4 0 3 -9 -2 -19 -12 -21 8 -47 25 -33 4 4 3 0 -4 -9 -10 -14 -10 -18 3
-23 9 -3 14 -10 11 -14 -3 -5 8 -37 24 -71 17 -35 30 -69 30 -77 0 -8 4 -14 9
-14 5 0 11 -9 14 -21 3 -12 10 -18 15 -15 5 3 9 -2 9 -12 0 -34 3 -43 12 -38
5 3 12 -5 15 -19 4 -14 11 -25 17 -25 6 0 8 -4 4 -9 -3 -5 2 -16 11 -25 8 -9
13 -20 10 -24 -3 -5 3 -15 12 -24 30 -27 52 -58 52 -73 0 -9 7 -18 16 -22 8
-3 13 -12 9 -20 -3 -11 -1 -13 10 -9 10 4 15 -1 15 -15 0 -11 7 -22 15 -25 8
-4 15 -12 15 -20 0 -8 5 -14 10 -14 6 0 10 -4 10 -10 0 -9 19 -35 47 -65 7 -7
9 -15 6 -19 -4 -3 1 -6 10 -6 9 0 17 -7 17 -15 0 -8 5 -15 10 -15 6 0 10 -6
10 -13 0 -8 9 -22 20 -32 11 -10 20 -22 20 -28 0 -5 14 -22 30 -37 20 -19 26
-30 18 -33 -9 -4 -8 -6 2 -6 8 -1 21 -15 28 -31 8 -17 20 -30 28 -30 8 0 14
-7 14 -16 0 -9 7 -22 16 -28 19 -14 24 -42 13 -78 -4 -15 -4 -30 1 -33 4 -3 6
-15 3 -28 -4 -18 -3 -19 6 -7 9 12 10 9 5 -12 -10 -43 -11 -128 -2 -122 4 3 8
0 8 -5 0 -6 -4 -11 -8 -11 -4 0 -8 -9 -8 -19 0 -11 3 -18 7 -15 4 2 7 -12 6
-30 0 -19 -5 -32 -10 -29 -5 3 -4 -3 1 -14 12 -21 11 -41 -2 -62 -6 -10 -5
-12 2 -7 9 5 11 -10 10 -51 -1 -32 1 -64 6 -71 4 -7 2 -12 -6 -12 -9 0 -9 -3
2 -10 8 -5 11 -10 6 -10 -5 0 -3 -6 3 -14 9 -11 9 -15 -1 -19 -9 -4 -10 -8 -3
-14 6 -4 10 -18 9 -31 -1 -12 3 -22 7 -22 5 0 9 -7 9 -15 0 -8 9 -15 20 -15
11 0 20 -5 20 -11 0 -8 5 -7 16 1 13 11 16 10 21 -8 3 -12 8 -22 12 -22 4 0 8
-17 9 -37 2 -21 7 -40 13 -44 6 -3 9 -10 8 -15 -3 -15 13 -74 20 -74 4 0 8
-10 8 -22 1 -13 7 -24 13 -26 5 -2 8 -8 4 -13 -3 -5 0 -9 5 -9 6 0 11 -7 11
-15 0 -8 5 -15 11 -15 8 0 7 -6 -2 -17 -10 -11 -10 -14 -1 -9 7 4 12 1 12 -8
0 -9 5 -16 11 -16 5 0 8 -4 4 -9 -3 -5 7 -31 23 -58 16 -26 27 -54 24 -62 -3
-8 0 -11 5 -8 5 3 18 -12 27 -34 10 -22 24 -43 32 -46 8 -3 14 -13 14 -22 0
-9 9 -23 20 -31 11 -8 20 -19 20 -24 0 -5 11 -19 26 -32 14 -13 22 -24 19 -24
-4 0 13 -16 37 -36 23 -20 44 -40 46 -45 2 -5 8 -9 13 -9 14 0 48 -38 41 -46
-4 -4 -2 -4 4 -1 7 4 23 -2 37 -13 14 -11 29 -20 34 -20 4 0 17 -11 27 -25 10
-14 25 -25 32 -25 8 0 11 -6 8 -15 -4 -8 -1 -15 6 -15 6 0 8 -5 3 -12 -10 -17
-13 -39 -4 -34 4 3 8 -14 9 -37 3 -83 5 -97 13 -97 5 0 9 -9 9 -21 0 -11 5
-17 10 -14 6 3 10 2 10 -3 0 -10 42 -22 94 -27 20 -2 24 0 15 6 -18 11 -6 11
24 0 14 -6 28 -7 32 -3 3 3 22 5 41 3 44 -3 81 32 75 72 0 4 5 7 11 7 9 0 8 4
-2 10 -8 5 -10 10 -3 10 6 0 9 9 6 20 -4 16 0 20 20 20 26 0 37 -16 37 -56 0
-13 5 -24 11 -24 6 0 9 -6 7 -12 -3 -7 1 -24 8 -37 7 -14 10 -29 7 -34 -3 -6
-1 -7 5 -3 8 5 12 -3 12 -23 0 -17 4 -31 8 -31 5 0 9 -6 9 -12 1 -25 8 -43 23
-56 12 -11 12 -12 1 -6 -10 5 -8 -3 6 -22 11 -16 18 -35 16 -41 -3 -7 0 -13 6
-13 6 0 11 -8 11 -18 0 -39 118 -119 150 -102 9 5 23 3 35 -6 15 -11 20 -11
27 -1 6 9 8 9 8 -1 0 -7 5 -10 12 -6 17 11 78 6 94 -7 11 -9 14 -9 14 0 0 8 6
9 18 2 11 -6 24 -6 36 1 10 6 21 6 25 2 7 -11 41 -15 41 -5 0 4 14 7 30 6 17
0 30 -4 30 -8 0 -5 4 -6 9 -2 17 10 71 13 77 3 3 -5 15 -1 25 8 17 15 19 16
14 2 -5 -13 -2 -15 15 -11 16 4 18 8 8 14 -19 13 0 11 24 -2 11 -6 18 -7 15
-2 -4 6 8 10 26 11 17 0 33 6 35 11 2 6 8 9 13 6 4 -3 20 2 34 11 14 9 25 13
25 10 0 -4 10 0 23 9 13 8 27 12 32 8 4 -5 5 -3 2 3 -4 6 9 19 28 29 18 11 39
29 46 42 7 13 16 23 21 23 4 0 8 7 8 15 0 8 6 15 13 15 8 0 14 7 15 15 1 8 3
22 4 30 1 8 6 15 11 15 5 0 7 7 4 15 -4 8 -2 17 3 20 6 4 10 17 10 30 0 13 6
26 13 28 9 4 9 8 -2 15 -9 6 -10 11 -2 13 8 3 11 460 10 1729 0 949 0 1737 0
1753 1 15 -4 27 -10 27 -8 0 -7 6 2 17 10 11 10 14 2 9 -9 -5 -13 0 -14 13 -2
30 -3 34 -13 50 -7 10 -6 12 3 6 8 -4 6 4 -4 18 -9 14 -16 28 -16 31 1 4 1 14
1 24 0 14 -2 15 -10 2 -8 -12 -10 -12 -10 5 0 22 -79 115 -98 115 -7 0 -12 5
-12 10 0 6 -6 10 -14 10 -7 0 -19 7 -26 15 -7 8 -23 15 -36 15 -13 0 -24 4
-24 9 0 5 -11 8 -25 7 -13 -2 -22 1 -19 5 5 9 2 10 -57 13 -20 0 -44 8 -55 16
-17 14 -18 13 -7 -1 11 -13 9 -15 -10 -13 -12 1 -22 3 -22 4 0 3 -75 10 -102
10 -13 0 -23 6 -23 13 0 9 -2 9 -8 1 -4 -8 -38 -11 -94 -10 -49 0 -84 -3 -81
-8 4 -5 -6 -6 -21 -2 -18 4 -34 2 -44 -6 -12 -10 -14 -10 -8 0 4 6 2 12 -3 12
-6 0 -11 -4 -11 -9 0 -10 -32 -7 -50 4 -6 4 -9 1 -8 -7 2 -7 -3 -12 -9 -11 -7
2 -13 -1 -13 -7 0 -5 -6 -7 -13 -4 -8 3 -20 -2 -27 -11 -7 -8 -19 -15 -26 -15
-8 0 -14 -9 -14 -21 0 -11 -4 -17 -10 -14 -5 3 -10 -1 -10 -9 0 -9 -4 -16 -10
-16 -5 0 -10 -6 -10 -13 0 -7 -9 -23 -20 -35 -23 -24 -26 -37 -7 -26 6 4 5 -1
-4 -12 -9 -10 -20 -29 -24 -42 -3 -12 -10 -20 -14 -17 -5 2 -8 -3 -8 -13 0
-31 -15 -62 -27 -55 -6 4 -5 -1 3 -10 7 -9 9 -17 3 -17 -8 0 -13 -11 -27 -62
-2 -5 -3 -13 -4 -19 -2 -15 -21 0 -31 25 -4 12 -3 29 2 40 7 13 7 16 -1 12 -7
-5 -11 5 -11 28 0 19 -6 37 -12 39 -10 4 -9 6 1 6 9 1 7 8 -9 21 -12 11 -26
17 -31 14 -5 -3 -39 -7 -76 -9 -117 -7 -167 -15 -176 -31 -5 -8 -12 -12 -17
-9 -7 4 -18 -13 -25 -37 -2 -5 -3 -9 -5 -10 -1 -2 -4 -19 -7 -38 -2 -19 -9
-38 -15 -41 -7 -4 -6 -9 1 -14 8 -5 9 -11 2 -19 -6 -7 -11 -42 -13 -79 -1 -37
-7 -67 -11 -67 -5 0 -4 -7 3 -15 10 -12 10 -15 -1 -15 -12 0 -12 -2 0 -9 7 -5
9 -11 4 -14 -5 -3 -9 -29 -7 -56 1 -28 -2 -48 -7 -45 -5 3 -9 0 -9 -6 0 -6 -4
-9 -9 -6 -5 4 -12 0 -14 -6 -4 -10 -6 -9 -6 1 -1 11 -4 11 -18 0 -15 -12 -16
-12 -8 1 8 13 6 13 -7 2 -9 -7 -44 -15 -77 -17 -33 -1 -64 -6 -70 -10 -6 -3
-11 -3 -11 2 0 4 -5 1 -10 -7 -9 -13 -11 -13 -20 0 -5 9 -10 10 -10 3 0 -6 -8
-10 -18 -8 -9 1 -25 -2 -34 -7 -12 -5 -18 -5 -18 1 0 6 -7 8 -15 5 -8 -4 -17
1 -21 10 -3 9 -10 13 -15 10 -5 -3 -9 0 -9 5 0 15 -167 181 -174 174 -3 -4 -6
1 -6 10 0 9 -7 17 -16 17 -8 0 -13 4 -9 9 3 5 -4 13 -16 16 -11 4 -18 9 -15
12 7 7 -38 43 -54 43 -6 0 -8 5 -5 10 3 6 3 10 -2 10 -4 0 -28 18 -53 40 -24
22 -48 40 -53 40 -12 0 -37 26 -37 39 0 6 -5 11 -10 11 -7 0 -10 101 -10 300
1 186 5 298 11 295 5 -4 9 -1 9 4 0 6 6 11 14 11 19 0 48 29 41 41 -4 5 -1 9
5 9 6 0 8 5 5 10 -3 6 -1 10 4 10 6 0 11 9 11 20 0 10 8 24 18 29 9 6 13 11 8
11 -5 0 -3 7 4 15 7 8 9 15 6 15 -4 0 0 7 8 16 9 8 13 20 10 26 -4 6 -3 8 3 5
9 -6 73 107 73 131 0 6 4 12 10 12 5 0 10 3 9 8 -3 17 14 51 22 46 5 -3 9 6 9
20 0 14 4 26 9 26 8 0 24 37 22 53 -1 4 4 7 10 7 5 0 7 5 4 10 -3 6 1 10 10
10 9 0 14 4 11 9 -8 12 35 92 46 85 4 -3 8 4 8 15 0 11 7 26 15 35 8 8 15 19
15 24 0 6 7 12 15 16 8 3 15 15 15 26 0 11 7 20 15 20 8 0 15 5 15 11 0 5 -6
7 -12 3 -12 -7 -7 0 42 54 11 12 20 26 20 32 0 5 8 13 18 19 9 5 17 13 17 18
0 4 3 7 8 5 4 -1 6 1 5 5 -3 15 14 43 23 37 8 -5 14 18 10 39 -1 5 3 6 9 2 5
-3 19 9 30 27 11 18 20 29 20 25 0 -4 6 -2 14 5 8 7 13 15 13 18 -3 7 33 55
38 53 5 -3 53 43 57 55 2 4 6 6 11 4 4 -1 7 4 7 12 0 7 9 16 21 19 11 3 23 15
26 26 3 11 10 18 16 15 7 -2 21 9 32 25 10 16 22 28 25 26 4 -2 13 4 22 13 24
27 57 52 69 52 5 0 7 5 4 10 -3 6 2 10 12 10 21 0 55 34 45 46 -4 5 0 3 9 -4
13 -10 19 -8 35 13 10 14 27 25 37 25 10 0 16 4 13 9 -5 8 17 23 37 25 5 1 14
9 21 18 7 10 16 14 20 10 4 -4 12 1 17 11 6 9 14 15 20 12 5 -4 9 -1 9 5 0 6
5 8 10 5 6 -3 10 -1 10 5 0 7 7 10 15 6 9 -3 15 0 15 10 0 9 7 14 18 12 9 -2
16 3 14 10 -1 6 1 11 5 10 19 -4 62 15 56 25 -3 5 -2 7 3 4 12 -7 75 23 69 33
-2 4 7 6 20 4 14 -1 25 2 25 8 0 6 7 7 16 4 10 -4 13 -2 8 6 -5 7 -2 9 9 5 9
-3 18 0 21 9 3 8 9 14 13 13 25 -4 53 2 48 11 -3 6 5 10 19 10 14 0 28 5 31
10 4 6 10 8 15 5 5 -3 12 0 15 6 4 5 13 8 20 5 8 -3 19 2 25 10 7 8 23 14 35
14 13 0 26 6 28 13 4 9 6 9 6 0 1 -7 8 -10 16 -7 8 4 13 9 10 14 -2 4 10 7 27
8 17 0 35 7 39 14 7 11 9 10 9 -1 0 -11 3 -11 15 -1 8 7 15 9 15 4 0 -4 7 1
15 12 8 10 15 14 15 8 0 -16 32 -12 48 6 10 11 12 11 6 1 -5 -10 -3 -12 7 -5
8 4 19 9 24 11 6 1 21 5 35 8 14 4 33 7 43 7 9 -1 17 3 17 8 0 4 6 8 13 7 51
-2 107 4 103 11 -3 5 1 9 9 9 8 0 12 -3 10 -7 -2 -3 5 -6 15 -6 10 0 16 4 14
8 -3 4 8 8 25 8 16 0 33 5 36 10 4 6 12 7 18 3 18 -11 47 -11 47 0 0 5 9 7 20
4 10 -3 21 0 23 7 3 8 10 8 26 -2 11 -7 21 -9 21 -5 0 11 92 9 109 -2 9 -5 12
-4 7 3 -5 8 43 11 166 11 123 0 175 -3 180 -12 6 -9 8 -9 8 0 0 9 7 10 22 4
13 -4 36 -4 52 0 19 6 34 5 43 -2 7 -6 24 -9 38 -7 13 3 22 2 20 -2 -4 -6 10
-8 75 -12 8 0 21 -5 28 -11 8 -6 12 -6 12 3 0 9 4 9 17 -1 9 -8 18 -13 20 -11
10 7 83 1 79 -7 -4 -5 2 -8 11 -6 10 1 24 -3 32 -9 11 -8 13 -8 7 2 -4 6 -3
12 3 12 5 0 11 -5 13 -11 2 -7 22 -13 43 -15 56 -4 65 -6 65 -15 0 -5 7 -5 17
-2 10 4 14 2 10 -4 -4 -6 3 -8 18 -5 15 2 25 0 25 -7 0 -7 6 -11 13 -10 32 4
68 -2 62 -11 -3 -5 0 -7 8 -4 8 3 18 1 21 -5 4 -6 13 -8 21 -4 8 3 15 1 15 -5
0 -6 8 -9 18 -8 9 2 20 -1 23 -6 3 -5 14 -10 25 -13 53 -12 104 -32 98 -38 -4
-4 7 -7 24 -7 18 0 32 -4 32 -10 0 -5 9 -10 21 -10 13 0 18 -4 13 -12 -4 -6
-3 -8 4 -4 11 6 82 -22 93 -37 3 -4 15 -9 27 -10 12 0 24 -7 27 -15 3 -7 9
-10 15 -7 5 3 10 1 10 -5 0 -7 6 -10 12 -8 7 3 19 -1 26 -9 8 -7 18 -11 23 -7
5 3 8 0 7 -8 -2 -7 4 -13 12 -13 8 0 19 -6 23 -12 4 -7 17 -13 27 -13 11 0 20
-3 20 -7 0 -5 12 -17 27 -27 17 -13 24 -14 19 -5 -4 8 -1 6 7 -3 8 -10 22 -18
31 -18 10 0 14 -4 11 -10 -3 -5 1 -10 10 -10 10 0 13 -5 9 -12 -4 -7 -3 -10 1
-5 5 4 20 -3 33 -15 14 -13 21 -16 17 -8 -5 8 4 3 20 -12 15 -16 34 -28 42
-28 8 0 11 -4 8 -10 -3 -5 -1 -10 5 -10 13 0 33 -16 68 -52 15 -16 32 -28 39
-28 6 0 18 -8 25 -18 7 -10 21 -21 31 -25 9 -3 17 -13 17 -20 0 -8 11 -19 25
-25 14 -6 25 -16 25 -22 0 -6 4 -9 9 -5 6 3 8 -4 6 -15 -2 -11 0 -18 6 -15 5
4 9 1 9 -5 0 -6 5 -8 10 -5 6 3 10 -1 10 -9 0 -9 6 -16 14 -16 13 0 31 -27 28
-43 -1 -4 4 -6 10 -5 7 2 12 -5 12 -14 -1 -10 2 -15 7 -12 5 3 9 0 9 -6 0 -6
5 -8 10 -5 6 3 10 -3 10 -14 0 -12 6 -20 13 -19 6 2 11 -3 9 -9 -1 -7 5 -13
14 -13 9 0 14 -5 12 -12 -2 -6 11 -27 29 -46 18 -18 31 -38 28 -42 -3 -5 0
-12 6 -16 8 -5 9 -3 4 6 -6 9 -4 11 4 5 7 -4 10 -16 8 -27 -5 -16 -3 -17 9 -7
12 10 13 9 8 -6 -5 -13 -4 -16 4 -11 11 6 17 -6 13 -27 -1 -4 6 -10 14 -13 8
-3 12 -10 9 -15 -3 -5 2 -9 12 -9 12 0 15 -6 11 -21 -4 -15 -2 -19 8 -15 8 3
12 0 9 -8 -3 -7 4 -21 16 -31 11 -10 20 -24 20 -32 0 -7 4 -13 10 -13 5 0 6
-7 3 -17 -4 -11 -3 -14 5 -9 8 5 12 0 12 -13 0 -11 5 -23 10 -26 6 -4 8 -11 4
-16 -3 -5 0 -8 8 -7 7 2 12 -3 11 -9 -2 -7 2 -13 8 -13 6 0 9 -9 6 -20 -3 -12
-1 -17 5 -14 5 3 12 -3 15 -15 3 -11 10 -18 16 -14 6 3 7 1 3 -6 -4 -6 2 -26
13 -45 11 -18 18 -36 14 -39 -3 -4 -1 -7 5 -7 7 0 12 -9 12 -21 0 -11 5 -17
10 -14 6 3 10 -5 10 -18 0 -14 7 -28 16 -31 8 -3 13 -10 10 -15 -4 -5 0 -16 8
-23 7 -8 17 -24 20 -36 4 -12 12 -22 17 -22 5 0 9 -7 9 -15 0 -16 28 -65 43
-76 5 -3 8 -9 7 -13 -6 -20 24 -63 50 -73 l30 -11 0 -301 c0 -200 -3 -301 -10
-301 -6 0 -15 -10 -20 -22 -5 -13 -9 -17 -9 -10 -1 7 -11 2 -25 -13 -14 -15
-28 -27 -33 -28 -4 -1 -7 -6 -5 -10 1 -5 -2 -6 -8 -2 -5 3 -13 -1 -16 -9 -3
-9 -11 -16 -18 -16 -6 0 -17 -9 -24 -20 -7 -12 -18 -18 -25 -14 -7 4 -9 4 -5
0 8 -10 -14 -36 -24 -29 -5 2 -8 -2 -8 -9 0 -7 -13 -22 -29 -33 -16 -10 -27
-23 -25 -27 3 -4 -2 -8 -11 -8 -10 0 -13 -5 -9 -12 5 -8 2 -9 -12 -4 -10 4
-15 4 -11 0 4 -4 -8 -21 -26 -38 -17 -17 -31 -34 -30 -38 2 -5 -2 -8 -8 -8
-11 0 -79 -71 -79 -83 0 -5 -4 -5 -10 -2 -5 3 -10 2 -10 -4 0 -10 -111 -8
-140 2 -8 3 -42 8 -74 11 -33 4 -65 11 -71 16 -6 5 -17 5 -24 1 -8 -5 -24 -3
-40 5 -21 11 -26 21 -26 56 -1 24 -4 54 -9 67 -5 15 -4 21 2 18 5 -4 7 5 5 21
-2 15 -6 51 -8 80 -2 30 -10 61 -17 70 -11 13 -11 14 1 8 10 -7 11 -3 5 15 -5
13 -8 36 -9 51 0 14 -3 24 -7 21 -5 -2 -8 6 -8 19 0 20 -40 70 -40 50 0 -4 -4
-1 -9 7 -5 8 -29 14 -64 15 -30 0 -53 4 -51 8 2 3 -24 6 -59 5 -34 0 -68 2
-74 6 -20 13 -47 -24 -42 -59 0 -4 -5 -11 -13 -15 -11 -7 -11 -9 1 -9 9 0 10
-4 4 -12 -5 -7 -10 -29 -12 -48 -3 -40 -20 -78 -21 -47 0 9 -4 17 -10 17 -5 0
-9 3 -9 8 3 16 -14 71 -21 67 -4 -2 -6 7 -4 20 1 15 -3 25 -11 25 -8 0 -11 7
-8 20 3 11 0 20 -6 20 -6 0 -11 9 -11 19 0 11 -7 26 -15 34 -8 8 -11 17 -8 21
4 3 1 6 -5 6 -7 0 -12 3 -11 8 2 14 -13 52 -21 52 -4 0 -10 9 -13 21 -4 13
-10 18 -18 13 -7 -4 -10 -3 -6 3 6 10 -27 43 -44 43 -5 0 -7 5 -4 10 3 6 -2
10 -12 10 -11 0 -25 6 -32 13 -11 10 -12 9 -6 -3 8 -13 7 -13 -8 -1 -9 7 -17
10 -17 6 0 -4 -8 -1 -17 6 -11 10 -14 10 -9 2 4 -7 2 -13 -3 -13 -6 0 -11 4
-11 9 0 10 -19 9 -37 -2 -6 -4 -14 -3 -18 3 -3 5 -20 10 -36 10 -20 0 -28 4
-23 12 5 7 3 8 -7 2 -23 -14 -52 -15 -61 -2 -6 10 -8 10 -8 1 0 -16 -34 -17
-62 -2 -13 7 -18 7 -14 1 4 -7 -6 -11 -26 -10 -40 0 -94 -9 -110 -18 -6 -4 -8
-3 -5 3 4 6 0 14 -8 17 -9 3 -18 -1 -21 -9 -4 -8 -9 -13 -13 -11 -4 3 -13 1
-21 -4 -8 -5 -22 -5 -32 1 -11 6 -18 6 -18 0 0 -5 -8 -8 -17 -7 -10 2 -24 -3
-31 -11 -7 -7 -23 -13 -36 -13 -12 0 -27 -5 -34 -12 -9 -9 -12 -9 -13 2 0 8
-4 5 -10 -8 -5 -13 -13 -20 -19 -17 -5 3 -10 1 -10 -4 0 -6 -5 -11 -11 -11 -6
0 -25 -16 -41 -35 -17 -19 -35 -32 -39 -29 -4 2 -6 -4 -4 -15 2 -11 -3 -22
-11 -25 -9 -3 -12 -10 -9 -16 3 -5 1 -10 -4 -10 -6 0 -11 -7 -11 -15 0 -8 -4
-15 -9 -15 -6 0 -8 -10 -6 -22 3 -12 0 -27 -5 -33 -6 -7 -11 -24 -12 -39 -1
-14 -5 -26 -8 -26 -3 0 -5 -15 -4 -32 0 -18 -3 -40 -7 -49 -5 -9 -5 -19 -2
-23 11 -11 10 -66 -1 -66 -7 0 -8 -3 -1 -8 13 -9 15 -62 3 -62 -5 0 -6 -6 -1
-12 10 -17 11 -49 2 -69 -5 -9 -5 -19 -2 -23 10 -10 11 -66 1 -66 -5 0 -6 -6
-1 -12 12 -20 11 -58 -1 -58 -7 0 -8 -3 -1 -8 6 -4 10 -23 10 -42 0 -19 -4
-38 -10 -42 -7 -5 -7 -8 0 -8 12 0 13 -49 2 -67 -5 -7 -4 -13 1 -13 11 0 10
-40 -1 -57 -5 -7 -4 -13 0 -13 5 0 8 -18 8 -40 0 -22 -4 -40 -10 -40 -7 0 -7
-3 0 -8 12 -9 14 -132 2 -132 -4 0 -5 -6 0 -12 10 -17 11 -128 1 -134 -5 -3
-5 -11 -1 -17 11 -17 11 -57 1 -63 -4 -3 -5 -11 -1 -17 11 -17 11 -57 1 -63
-4 -3 -5 -11 -1 -17 11 -17 11 -57 1 -63 -4 -3 -5 -11 -1 -17 11 -17 11 -57 1
-63 -5 -3 -5 -11 0 -17 10 -14 10 -47 -1 -64 -4 -6 -3 -14 1 -17 10 -6 10 -46
-1 -63 -4 -6 -3 -14 1 -17 11 -7 9 -46 -2 -65 -7 -11 -6 -12 5 -6 12 8 12 6 0
-8 -7 -9 -9 -17 -4 -17 11 0 11 -60 0 -77 -5 -7 -4 -13 1 -13 10 0 9 -51 -2
-68 -3 -6 -2 -13 2 -16 10 -6 9 -36 -1 -53 -4 -6 -4 -14 1 -17 10 -6 9 -57 -1
-73 -5 -7 -4 -13 1 -13 10 0 9 -51 -2 -68 -3 -6 -2 -13 2 -16 10 -6 9 -36 -1
-53 -4 -6 -4 -14 1 -17 10 -6 9 -57 -1 -73 -5 -7 -4 -13 1 -13 10 0 9 -51 -2
-68 -3 -6 -2 -13 2 -16 10 -6 9 -36 -1 -53 -4 -6 -4 -14 1 -17 10 -6 9 -57 -1
-73 -5 -7 -4 -13 1 -13 10 0 9 -51 -2 -68 -3 -6 -2 -13 2 -16 10 -6 9 -36 -1
-53 -4 -6 -4 -14 1 -17 10 -6 9 -57 -1 -74 -5 -6 -4 -12 0 -12 11 0 10 -90 0
-107 -5 -7 -4 -13 1 -13 11 0 10 -40 -1 -57 -5 -7 -4 -13 1 -13 10 0 10 -70
-1 -87 -4 -6 -3 -14 1 -17 10 -6 10 -46 -1 -63 -4 -6 -3 -14 1 -17 10 -6 10
-46 -1 -63 -4 -6 -3 -14 1 -17 10 -6 10 -46 -1 -63 -4 -6 -3 -14 1 -17 8 -4 9
-50 2 -66 -1 -3 -1 -9 0 -15 7 -32 6 -65 -2 -65 -6 0 -5 -7 2 -15 10 -12 10
-15 0 -15 -8 0 -9 -4 -3 -12 11 -15 11 -28 -1 -47 -6 -10 -5 -12 2 -7 8 4 12
-1 13 -13 2 -33 4 -39 11 -46 4 -4 4 -13 1 -21 -3 -8 0 -14 7 -14 6 0 9 -4 5
-9 -3 -5 -1 -12 5 -16 5 -3 10 -17 10 -29 0 -13 12 -35 26 -50 15 -14 23 -26
18 -27 -5 0 1 -4 14 -9 12 -5 22 -17 22 -25 0 -9 4 -13 10 -10 6 3 10 1 10 -6
0 -7 3 -9 6 -6 4 4 14 -1 23 -11 21 -22 66 -48 56 -32 -5 8 0 7 13 -1 12 -7
19 -16 16 -20 -2 -4 7 -6 22 -3 18 3 23 1 18 -7 -4 -8 -3 -9 4 -5 7 4 18 4 25
-1 6 -4 28 -8 47 -9 19 -1 37 -3 40 -4 3 -1 8 -2 13 -1 4 0 7 -4 7 -10 0 -7 5
-8 13 -3 15 11 38 11 56 0 10 -6 12 -5 7 3 -10 15 25 11 36 -4 5 -6 8 -4 8 5
0 13 1 13 10 0 7 -10 12 -12 18 -4 4 6 16 10 27 8 38 -7 60 -7 78 1 10 4 17 3
17 -4 0 -6 5 -11 11 -11 5 0 8 4 5 8 -3 5 5 8 17 7 12 -1 28 3 36 9 11 8 13 8
8 0 -4 -7 2 -14 14 -17 16 -4 18 -3 9 8 -10 12 -8 13 9 10 12 -2 26 -7 31 -10
6 -3 10 -1 10 4 0 6 8 11 18 11 14 0 14 -2 3 -9 -10 -7 -7 -9 12 -8 14 1 23 5
21 8 -2 4 14 9 35 12 32 4 132 57 108 57 -4 0 4 12 18 27 14 15 25 38 25 50 0
13 5 23 10 23 6 0 10 3 9 8 -3 18 14 51 24 45 6 -3 7 -1 3 6 -7 10 31 138 44
151 3 3 5 12 5 20 -1 8 2 20 6 25 4 6 9 24 12 40 3 22 10 31 27 33 12 2 27 -2
31 -10 12 -18 11 -30 -2 -22 -7 4 -7 -1 1 -16 6 -12 9 -28 6 -36 -3 -9 -1 -12
4 -9 6 3 10 1 10 -5 0 -13 20 -34 35 -37 6 -1 19 -5 30 -8 16 -6 17 -5 5 4
-12 8 -11 10 7 8 12 0 20 -4 18 -7 -2 -4 12 -6 30 -6 19 1 35 4 35 9 0 4 5 7
11 7 5 0 8 -4 5 -8 -4 -6 38 -8 54 -2 3 1 8 2 12 1 4 0 23 14 41 33 27 27 33
40 32 70 -1 20 2 36 7 36 5 0 4 9 -2 20 -8 15 -8 20 1 20 8 0 7 5 -2 17 -10
11 -10 14 -1 9 15 -9 16 6 0 22 -9 9 -9 12 1 12 7 0 9 5 6 10 -3 6 1 13 9 16
9 3 13 10 10 15 -3 5 9 12 26 16 22 4 28 8 18 14 -11 7 -11 9 0 9 8 0 24 8 37
17 12 10 33 25 45 33 13 8 31 24 41 34 11 11 19 17 19 14 0 -4 18 11 40 33 22
22 40 43 40 47 0 3 11 18 25 32 62 61 83 89 72 94 -9 3 -8 5 1 5 6 1 12 8 12
17 0 8 4 13 9 10 5 -4 12 7 16 24 4 18 11 27 18 23 6 -4 8 -1 5 8 -3 9 3 26
13 40 10 13 19 28 19 33 0 5 7 18 17 28 13 14 13 18 2 18 -10 1 -9 3 3 10 10
6 15 19 13 30 -2 11 0 18 6 15 8 -6 13 8 10 28 0 4 4 7 11 7 6 0 8 3 5 6 -4 4
2 19 13 34 11 16 20 34 20 42 0 8 6 20 13 27 9 11 9 12 0 7 -9 -5 -11 -2 -7 8
3 9 9 16 13 16 6 0 8 9 13 65 1 14 6 25 11 25 4 0 6 4 3 9 -8 12 25 36 49 36
24 -1 49 30 39 47 -4 6 -3 8 3 5 6 -4 13 5 16 21 3 15 1 30 -5 33 -7 4 -6 8 1
10 7 3 13 28 13 62 1 33 6 57 12 57 8 0 8 3 0 8 -5 4 -10 18 -10 32 0 14 5 28
10 32 7 5 7 8 -2 8 -10 0 -10 5 -2 20 8 15 8 20 -1 20 -8 0 -8 4 1 15 10 12
10 15 0 15 -10 0 -10 3 0 15 10 12 10 18 1 29 -9 11 -9 16 0 21 8 6 7 10 -2
16 -8 5 -9 9 -3 9 12 0 12 29 -1 49 -5 10 -4 12 3 7 16 -10 15 7 0 23 -10 11
-10 13 0 7 7 -4 12 -1 12 8 0 8 -6 17 -12 19 -10 4 -9 6 1 6 11 1 11 4 0 18
-10 11 -10 14 -1 9 9 -5 12 10 12 63 0 58 3 71 16 71 8 0 13 4 9 9 -3 6 8 25
25 44 16 19 30 38 30 42 0 4 10 16 22 26 11 11 17 19 13 19 -4 0 4 11 19 25
15 14 24 25 20 25 -4 0 5 11 20 25 14 13 26 26 26 27 -4 12 14 37 23 31 6 -3
7 -1 3 5 -4 6 2 19 14 29 11 10 20 23 20 31 0 7 4 11 9 8 5 -3 12 6 15 19 4
14 11 23 16 20 6 -3 10 2 10 12 0 10 9 25 19 33 11 7 18 17 15 22 -3 4 -1 8 5
8 5 0 13 9 16 20 4 11 11 18 16 14 5 -3 9 -2 8 3 -4 24 3 43 17 43 8 0 13 4 9
9 -3 6 1 13 8 18 7 4 19 23 26 40 8 18 17 33 22 33 5 0 9 6 9 14 0 7 7 19 15
26 9 7 14 19 11 27 -3 7 1 13 10 13 9 0 12 5 8 11 -3 6 -2 14 3 18 12 7 94
177 98 200 1 8 7 17 12 18 6 2 8 13 5 25 -3 13 -1 19 5 15 7 -4 10 5 8 23 -2
19 1 27 8 23 6 -4 8 0 4 10 -3 10 -2 17 3 17 5 0 7 9 5 20 -2 11 0 20 5 20 4
0 6 20 4 45 -2 34 0 44 9 38 6 -4 -1 10 -17 31 -15 20 -26 40 -23 43 3 3 -3
14 -14 26 -10 11 -19 28 -19 37 0 9 -9 25 -20 35 -12 10 -18 25 -15 32 2 8 1
12 -3 9 -5 -3 -17 12 -27 32 -11 20 -24 40 -28 43 -5 3 -9 10 -10 15 -1 5 -5
8 -9 7 -5 -2 -7 0 -6 5 4 14 -13 52 -24 52 -5 0 -7 7 -4 16 3 8 2 13 -3 9 -5
-3 -15 8 -23 25 -7 17 -20 30 -31 30 -10 0 -15 5 -12 10 3 6 2 10 -2 10 -11 0
-11 131 0 147 4 6 3 14 -3 18 -15 9 -12 28 3 19 9 -6 9 -4 0 7 -17 17 -17 32
0 23 8 -5 8 -2 -2 9 -9 12 -10 17 -2 17 9 0 9 5 1 20 -6 11 -7 20 -2 20 12 0
11 32 -2 49 -8 11 -8 13 1 7 9 -5 13 5 12 36 0 70 2 78 17 78 8 0 13 6 11 13
-1 6 4 11 11 10 6 -2 12 2 12 8 0 5 4 8 8 5 5 -3 8 8 7 24 -1 17 2 30 8 30 5
0 -1 9 -14 20 -13 10 -18 19 -11 20 6 0 12 -5 12 -12 0 -6 3 -8 6 -5 4 4 1 13
-5 21 -8 10 -9 16 -1 21 6 3 7 11 4 17 -4 6 -2 8 4 4 6 -3 19 7 28 24 10 16
24 30 32 30 7 0 11 4 8 8 -3 5 10 25 28 45 18 20 31 39 28 41 -3 3 3 8 12 12
9 3 13 10 10 15 -3 5 -1 9 5 9 5 0 13 9 16 20 4 11 11 17 17 14 7 -5 8 -2 4 5
-5 7 -1 20 7 29 27 30 46 89 34 101 -8 8 -8 11 1 11 7 0 12 7 12 16 0 8 -4 13
-8 10 -5 -3 -9 1 -9 9 0 8 4 15 9 15 4 0 3 9 -4 20 -11 17 -10 22 2 30 10 6
11 10 3 10 -8 0 -13 13 -13 30 0 17 -5 30 -12 30 -9 0 -8 4 2 10 8 5 10 10 4
10 -7 0 -15 7 -18 16 -3 8 -2 12 4 9 15 -9 12 5 -5 21 -8 9 -15 26 -15 40 0
13 -4 24 -10 24 -5 0 -10 12 -10 26 0 17 -4 23 -12 18 -8 -5 -9 -2 -5 9 3 9 0
22 -7 29 -7 7 -15 22 -19 33 -18 59 -36 100 -49 109 -8 6 -13 17 -10 24 2 7
-6 20 -18 30 -19 16 -27 35 -29 70 -1 7 -6 10 -13 6 -8 -5 -9 0 -6 14 4 12 3
20 -2 17 -4 -2 -18 17 -31 43 -13 26 -30 53 -37 60 -6 8 -9 18 -6 24 4 6 3 8
-3 5 -5 -3 -17 7 -27 24 -9 16 -14 29 -9 29 4 0 0 5 -9 11 -10 5 -18 15 -18
21 0 5 -11 24 -25 40 -14 16 -23 34 -19 39 3 5 -2 9 -11 9 -9 0 -13 5 -10 10
3 6 1 10 -5 10 -6 0 -8 5 -5 10 3 6 -1 10 -10 10 -11 0 -15 5 -11 16 3 8 2 12
-4 9 -5 -3 -14 4 -20 16 -12 21 -33 49 -58 75 -7 8 -11 14 -7 14 10 0 -18 26
-35 33 -12 4 -12 6 -1 6 9 1 2 12 -17 30 -16 16 -28 32 -24 35 3 3 -3 6 -13 6
-10 0 -16 3 -12 6 3 3 -5 16 -18 29 -14 12 -22 25 -18 28 3 4 -1 7 -10 7 -10
0 -17 5 -17 10 0 6 -9 19 -20 30 -11 11 -20 18 -20 15 0 -3 -9 4 -20 15 -11
11 -20 24 -20 29 0 5 -7 12 -16 15 -8 3 -12 10 -9 16 3 5 2 10 -4 10 -5 0 -34
23 -63 51 -78 75 -84 79 -96 79 -7 0 -12 4 -12 10 0 14 -42 50 -52 44 -5 -3
-7 0 -6 8 2 7 -3 12 -9 10 -7 -1 -13 4 -13 11 0 7 -10 17 -22 22 -13 6 -22 17
-20 24 1 7 -2 10 -8 6 -5 -3 -10 -1 -10 4 0 6 -4 11 -10 11 -17 0 -49 33 -43
44 4 6 -2 4 -12 -4 -10 -8 -16 -10 -12 -4 3 6 -5 17 -18 24 -14 7 -25 17 -25
22 0 4 -7 8 -15 8 -9 0 -18 7 -21 15 -4 8 -10 12 -15 9 -5 -3 -9 2 -9 11 0 9
-5 13 -11 10 -5 -4 -22 6 -36 22 -14 15 -22 22 -18 14 4 -7 -6 -3 -24 10 -17
12 -31 27 -31 32 0 5 -7 6 -16 3 -8 -3 -12 -2 -9 4 3 6 -1 10 -9 10 -8 0 -20
8 -25 18 -6 9 -11 14 -11 10 0 -4 -21 6 -47 22 -26 17 -55 30 -65 30 -9 0 -22
9 -28 20 -6 11 -16 17 -26 13 -9 -3 -14 -1 -12 7 2 7 -6 14 -16 16 -10 1 -22
8 -26 14 -4 7 -10 11 -14 11 -23 -3 -36 0 -31 9 3 6 -3 10 -14 10 -12 0 -21 5
-21 11 0 5 -5 7 -10 4 -6 -3 -13 1 -16 9 -3 9 -10 13 -15 10 -5 -3 -9 0 -9 6
0 7 -7 10 -15 7 -8 -4 -17 -2 -20 3 -4 6 -14 10 -24 10 -10 0 -24 7 -31 15 -7
8 -16 12 -21 10 -4 -3 -22 3 -40 14 -18 11 -36 18 -41 15 -4 -3 -8 0 -8 5 0 6
-9 11 -20 11 -11 0 -20 4 -20 9 0 5 -8 8 -17 7 -10 -2 -21 1 -24 6 -3 5 -16
10 -27 11 -12 1 -22 5 -22 9 0 4 -11 8 -24 8 -13 0 -26 5 -28 12 -3 7 -18 13
-34 14 -44 2 -46 3 -38 17 5 8 2 8 -9 -2 -9 -7 -17 -9 -17 -4 0 5 -6 10 -12
11 -46 6 -77 16 -72 23 8 13 -10 11 -24 -3 -9 -9 -12 -9 -12 0 0 7 -8 12 -18
12 -10 0 -22 3 -26 8 -4 4 -11 7 -14 7 -9 1 -82 17 -102 22 -8 3 -28 6 -44 8
-16 2 -32 9 -36 15 -6 9 -9 9 -15 1 -4 -8 -11 -9 -18 -3 -7 5 -24 8 -39 6 -16
-1 -28 1 -28 5 0 4 -19 8 -42 10 -23 1 -46 7 -50 14 -5 8 -8 8 -8 1 0 -6 -7
-11 -15 -11 -8 0 -12 4 -9 9 3 5 -12 8 -33 8 -48 -2 -114 10 -130 23 -9 6 -13
6 -13 -2 0 -6 -5 -11 -11 -11 -5 0 -8 3 -6 8 6 9 -66 8 -81 -2 -6 -3 -13 -2
-17 4 -3 5 -26 10 -51 10 -25 0 -55 5 -67 11 -16 9 -22 9 -25 0 -2 -6 -9 -8
-14 -4 -20 12 -68 12 -61 -1 4 -6 -1 -5 -10 3 -12 9 -17 10 -17 2 0 -7 -5 -9
-12 -5 -14 9 -68 11 -62 3z"/>
<path d="M5910 7440 c0 -5 5 -10 11 -10 5 0 7 5 4 10 -3 6 -8 10 -11 10 -2 0
-4 -4 -4 -10z"/>
</g>
</svg>
